PathFileType	4	(X/Y/Z)	C:/Users/beibeiliu/ov580/test_trc/User2\sequence.22_training_dense_left.trc
DataRate	CameraRate	NumFrames	NumMarkers	Units	OrigDataRate	OrigDataStartFrame	OrigNumFrames
120	120	9	19	mm	120	319	364
Frame#	Time	ThumbCMC			ThumbMCP			ThumbIP			ThumbTip			IndexMCP			IndexPIP			IndexTip			MiddleMCP			MiddlePIP			MiddleTip			RingMCP			RingPIP			RingTip			PinkyMCP			PinkyPIP			PinkyTip			BackHand1			BackHand2			BackHand3	
		X0	Y0	Z0	X1	Y1	Z1	X2	Y2	Z2	X3	Y3	Z3	X4	Y4	Z4	X5	Y5	Z5	X6	Y6	Z6	X7	Y7	Z7	X8	Y8	Z8	X9	Y9	Z9	X10	Y10	Z10	X11	Y11	Z11	X12	Y12	Z12	X13	Y13	Z13	X14	Y14	Z14	X15	Y15	Z15	X16	Y16	Z16	X17	Y17	Z17	X18	Y18	Z18	
318	2.65	-136.417	-31.0627	91.2149	-131.922	-37.5463	62.8596	-126.19	-37.6395	25.7453	-125.778	-41.7263	3.77645	-166.311	-11.7656	11.4036	-168.602	-36.1865	-8.75941	-166.299	-61.8879	17.885	-186.16	-14.6461	6.47642	-192.863	-45.9382	-5.4477	-181.196	-64.8913	28.626	-206.931	-15.9188	19.1847	-208.164	-43.815	0.241303	-196.071	-63.6873	32.1038	-224.581	-13.3067	43.1131	-225.654	-6.63569	15.7346	-231.037	0.669217	-5.29889	-201.32	-3.56142	81.1626	-196.097	-3.25089	112.326	-163.752	0.477	90.5527	
319	2.65833	-138.29	-31.8418	87.8063	-132.012	-38.9283	60.8842	-127.201	-39.1547	23.8684	-129.395	-42.8545	2.58655	-165.805	-11.0642	10.375	-175.132	-33.4975	-8.17045	-171.099	-60.5205	18.6963	-193.676	-13.755	6.99353	-193.403	-47.9873	-6.01965	-185.015	-66.4971	26.4271	-210.453	-16.207	16.8497	-212.308	-41.4721	1.43642	-201.045	-64.4191	29.7277	-222.651	-12.9598	43.2432	-232.509	-6.40559	18.4102	-234.544	3.48285	-6.27077	-202.611	-3.75909	75.8223	-195.039	-2.27109	111.407	-166.535	0.129985	88.9787	
320	2.66667	-143.64	-32.4793	89.9515	-138.949	-37.7933	55.3964	-136.473	-40.3508	21.3528	-136.516	-43.079	-3.86453	-175.946	-12.1748	14.6578	-182.177	-36.1609	-9.32154	-173.062	-62.9421	18.0744	-199.563	-14.1865	11.8153	-201.743	-48.122	-5.83276	-195.178	-67.6464	28.6687	-218.654	-17.4502	16.8716	-221.775	-46.0581	3.57884	-207.172	-66.4135	34.2049	-230.557	-12.1473	46.707	-233.88	-5.20489	19.66	-241.36	3.29796	-6.10551	-208.489	-1.43994	78.5357	-198.204	0.0924274	111.548	-167.754	-1.63329	89.6149	
321	2.675	-149.371	-30.6017	84.0033	-140.397	-41.1194	54.6386	-142.301	-44.5061	21.2475	-146.196	-49.4287	-5.11779	-187.602	-16.9525	9.96673	-191.815	-39.7656	-7.90128	-183.582	-65.476	22.0505	-206.82	-17.4764	8.48709	-214.364	-47.5683	-3.6399	-201.716	-71.3166	28.6781	-225.4	-18.3339	22.01	-228.875	-47.9808	6.25571	-214.572	-68.4175	33.189	-234.367	-14.6688	50.9728	-245.402	-6.17327	22.5453	-249.726	0.988968	-2.5917	-211.32	-3.25561	80.9507	-198.861	1.34026	112.383	-173.18	0.346358	86.5737	
322	2.68333	-151.75	-33.9691	85.8669	-150.483	-42.8061	51.1362	-151.417	-50.0615	18.3064	-163.251	-54.9887	-6.24833	-198.738	-22.342	9.01334	-207.206	-46.1214	-4.23252	-197.363	-67.9463	23.6155	-215.556	-22.1129	10.1381	-227.31	-53.637	0.152077	-207.973	-76.6409	31.8182	-238.64	-23.3289	25.2517	-241.892	-51.2876	10.7202	-224.826	-71.0521	34.2707	-243.22	-15.0073	50.6976	-257.259	-9.55493	25.6961	-259.194	-5.92461	3.48419	-213.688	-5.74756	81.521	-204.146	-0.995911	110.981	-180.841	-2.7863	80.7573	
323	2.69167	-156.426	-35.9446	81.052	-157.07	-47.6845	53.5474	-163.982	-55.6923	22.2161	-173.371	-62.593	-2.46991	-204.571	-26.7746	10.7027	-211.841	-52.6769	-5.00048	-201.69	-73.9137	27.8842	-224.411	-27.0663	12.6431	-232.38	-60.8715	2.04366	-215.605	-80.1091	36.3106	-244.24	-27.4524	23.0394	-252.492	-56.0716	15.0952	-233.72	-75.5644	42.1791	-250.504	-18.3402	53.2536	-263.569	-12.9842	28.772	-272.809	-8.60287	4.19854	-222.647	-4.19182	84.6878	-208.905	-1.23485	108.72	-180.555	-5.02465	79.1632	
324	2.7	-162.953	-38.712	82.3431	-166.512	-50.4732	55.2058	-172.103	-58.1653	19.6044	-180.307	-66.5138	-0.626671	-209.417	-30.3018	13.3107	-220.745	-58.0969	0.329842	-207.408	-76.8871	29.2101	-229.788	-29.1646	15.2444	-241.46	-62.757	4.56574	-226.845	-81.8384	37.5907	-248.003	-30.8369	24.0983	-255.401	-58.1882	14.7284	-238.44	-77.2324	44.867	-255.32	-21.1152	55.148	-272.785	-17.1957	29.8899	-278.345	-14.314	4.981	-228.103	-4.9413	81.9203	-214.213	-0.618045	110.686	-188.057	-4.98613	82.4154	
325	2.70833	-164.672	-36.1966	81.9867	-164.52	-49.1756	51.5687	-175.979	-56.293	17.9499	-185.475	-65.5938	-1.33454	-210.365	-32.7799	12.886	-218.321	-61.9751	1.00504	-206.94	-76.3323	31.2971	-231.838	-32.694	11.0687	-240.381	-65.6676	4.57911	-223.188	-81.5428	37.7138	-252.363	-31.6702	25.8927	-257.526	-65.159	16.4659	-238.064	-78.7216	42.9965	-259.91	-22.2515	52.5002	-275.218	-20.117	26.2837	-284.886	-19.049	3.54521	-230.154	-6.68412	77.8703	-219.769	-1.39752	106.349	-189.779	-6.60024	79.4736	
326	2.71667	-169.542	-31.7413	83.9591	-164.815	-44.0486	51.524	-172.84	-54.6483	23.2063	-185.389	-63.1587	-1.387	-209.006	-33.3929	9.94617	-213.269	-67.1323	1.90152	-198.438	-73.5544	33.6613	-229.699	-33.6327	10.2967	-235.448	-70.875	4.75022	-218.465	-82.6374	35.8172	-249.944	-35.6228	21.5866	-253.151	-66.514	13.4515	-232.174	-79.9389	40.4183	-263.571	-26.6866	46.5258	-279.403	-27.6249	24.3128	-286.625	-25.4723	3.26941	-236.673	-7.61096	75.3814	-224.292	1.34696	103.972	-196.523	-2.6221	78.9497	
